M48
; DRILL file {KiCad 5.1.10-88a1d61d58~88~ubuntu18.04.1} date Tue Oct  5 19:52:49 2021
; FORMAT={-:-/ absolute / inch / decimal}
; #@! TF.CreationDate,2021-10-05T19:52:49+07:00
; #@! TF.GenerationSoftware,Kicad,Pcbnew,5.1.10-88a1d61d58~88~ubuntu18.04.1
; #@! TF.FileFunction,Plated,1,2,PTH
FMAT,2
INCH
T1C0.0276
T2C0.0315
T3C0.0335
T4C0.0354
T5C0.0394
T6C0.0400
T7C0.0512
T8C0.0700
T9C0.1260
%
G90
G05
T1
X5.1354Y-1.4685
X5.1354Y-1.6685
X5.5626Y-2.3512
X6.7425Y-2.0575
X6.7429Y-2.3862
X6.7433Y-1.9713
X6.7433Y-2.2937
X6.9425Y-2.0575
X6.9429Y-2.3862
X6.9433Y-1.9713
X6.9433Y-2.2937
T2
X4.9734Y-4.3209
X4.9819Y-2.3516
X5.0236Y-2.5213
X5.037Y-2.0563
X5.0719Y-4.3209
X5.2362Y-1.7559
X5.3189Y-2.5764
X5.3346Y-1.7559
X5.7283Y-3.0795
X5.7283Y-3.1795
X5.7283Y-3.2795
X5.839Y-1.6567
X5.861Y-3.8874
X5.9374Y-1.6567
X5.9567Y-1.4291
X5.9567Y-1.5276
X5.9594Y-3.8874
X5.9596Y-3.624
X5.9596Y-3.7224
X6.185Y-1.4291
X6.185Y-1.5276
X6.2681Y-1.9425
X6.2681Y-2.2559
X6.3583Y-1.4291
X6.3583Y-1.5276
X6.3585Y-4.1234
X6.3585Y-4.2234
X6.3587Y-3.6591
X6.3587Y-3.7591
X6.3587Y-3.8917
X6.3587Y-3.9917
X6.3594Y-2.7425
X6.3594Y-2.8425
X6.3594Y-2.9713
X6.3594Y-3.0713
X6.3594Y-3.2
X6.3594Y-3.3
X6.3594Y-3.4285
X6.3594Y-3.5285
X6.3598Y-2.5146
X6.3598Y-2.6146
X6.3681Y-1.9425
X6.3681Y-2.2559
X6.4681Y-1.9425
X6.4681Y-2.2559
X6.6398Y-1.9587
X6.6398Y-2.0571
X6.6402Y-2.2933
X6.6402Y-2.3917
X6.6585Y-4.1234
X6.6585Y-4.2234
X6.6587Y-3.6591
X6.6587Y-3.7591
X6.6587Y-3.8917
X6.6587Y-3.9917
X6.6594Y-2.7425
X6.6594Y-2.8425
X6.6594Y-2.9713
X6.6594Y-3.0713
X6.6594Y-3.2
X6.6594Y-3.3
X6.6594Y-3.4285
X6.6594Y-3.5285
X6.6598Y-2.5146
X6.6598Y-2.6146
X6.763Y-3.6606
X6.763Y-3.7591
X6.763Y-4.1248
X6.763Y-4.2232
X6.7638Y-2.7441
X6.7638Y-2.8425
X6.7638Y-3.4303
X6.7638Y-3.5287
X6.7642Y-2.972
X6.7642Y-3.0705
X6.7646Y-3.8929
X6.7646Y-3.9913
X6.7657Y-3.2008
X6.7657Y-3.2992
X6.7661Y-2.5165
X6.7661Y-2.615
T3
X6.5555Y-1.5961
X6.7563Y-1.6669
T4
X5.0315Y-1.5693
X5.0315Y-1.6693
X6.3268Y-1.6142
X6.3268Y-1.7142
X6.913Y-3.6591
X6.913Y-3.7591
X6.9142Y-2.9705
X6.9142Y-3.0705
X6.9146Y-2.7421
X6.9146Y-2.8421
X6.9146Y-4.1244
X6.9146Y-4.2244
X6.915Y-3.4291
X6.915Y-3.5291
X6.9157Y-3.2004
X6.9157Y-3.3004
X6.9161Y-3.8917
X6.9161Y-3.9917
X6.9177Y-2.5157
X6.9177Y-2.6157
T5
X4.9157Y-4.5709
X4.9764Y-4.1693
X4.9819Y-2.7602
X4.9835Y-2.7118
X4.9835Y-2.9118
X4.9835Y-3.1118
X4.9835Y-3.4118
X5.0142Y-4.4409
X5.0157Y-4.5709
X5.0764Y-4.1693
X5.1102Y-4.0433
X5.1142Y-4.4409
X5.1157Y-4.5709
X5.1626Y-2.0512
X5.1626Y-2.3512
X5.2087Y-2.3512
X5.2098Y-2.0516
X5.2157Y-4.5709
X5.2346Y-1.5815
X5.2835Y-2.7118
X5.2835Y-2.7618
X5.2835Y-2.9118
X5.2835Y-3.1118
X5.2835Y-3.4118
X5.3102Y-4.0433
X5.3157Y-4.5709
X5.3346Y-1.5815
X5.3626Y-2.0512
X5.3626Y-2.3512
X5.4157Y-4.5709
X5.4346Y-1.5815
X5.4917Y-2.5614
X5.5346Y-1.5815
X5.5626Y-2.0512
X5.5917Y-2.5614
X5.6181Y-4.3031
X5.6346Y-1.5815
X5.7205Y-4.4055
X5.7346Y-1.5815
X5.8302Y-4.091
X5.8602Y-3.7156
X5.8612Y-2.6476
X5.8626Y-2.0512
X5.8626Y-2.3512
X5.8981Y-4.2279
X6.7083Y-2.1772
X6.7118Y-1.8417
X6.8083Y-2.1772
X6.8118Y-1.8417
T6
X5.49Y-2.805
X5.49Y-2.905
X5.49Y-3.005
X5.49Y-3.105
X5.49Y-3.205
X5.49Y-3.305
X5.49Y-3.405
X5.49Y-3.505
X5.49Y-3.605
X5.49Y-3.705
X5.49Y-3.805
X5.49Y-3.905
X5.49Y-4.005
X5.49Y-4.105
X5.49Y-4.205
X6.09Y-2.805
X6.09Y-2.905
X6.09Y-3.005
X6.09Y-3.105
X6.09Y-3.205
X6.09Y-3.305
X6.09Y-3.405
X6.09Y-3.505
X6.09Y-3.605
X6.09Y-3.705
X6.09Y-3.805
X6.09Y-3.905
X6.09Y-4.005
X6.09Y-4.105
X6.09Y-4.205
T7
X4.6933Y-1.528
X4.6933Y-1.728
X4.6933Y-1.928
X4.6933Y-3.3571
X4.6933Y-3.5571
X4.6933Y-3.7571
X4.6933Y-3.9654
X4.6933Y-4.1654
X4.6933Y-4.3654
X4.6937Y-2.1382
X4.6937Y-2.3382
X4.6937Y-2.5382
X4.6937Y-2.7484
X4.6937Y-2.9484
X4.6937Y-3.1484
X7.235Y-1.5295
X7.235Y-1.7295
X7.235Y-1.9295
X7.2354Y-2.1394
X7.2354Y-2.3394
X7.2354Y-2.5394
X7.2354Y-2.748
X7.2354Y-2.948
X7.2354Y-3.148
X7.2354Y-3.3571
X7.2354Y-3.5571
X7.2354Y-3.7571
X7.2354Y-3.9657
X7.2354Y-4.1657
X7.2354Y-4.3657
T8
X5.49Y-2.705
X5.49Y-4.305
X6.09Y-2.705
X6.09Y-4.305
T9
X4.6898Y-4.61
X4.7Y-1.28
X7.23Y-1.28
X7.24Y-4.61
T5
G00X7.0Y-1.7559
M15
G01X7.0Y-1.6772
M16
G05
G00X7.1575Y-1.5315
M15
G01X7.0787Y-1.5315
M16
G05
G00X7.2362Y-1.7559
M15
G01X7.2362Y-1.6772
M16
G05
T0
M30
